<svg xmlns="http://www.w3.org/2000/svg" viewBox="0 0 130 40" fill="#fff"><path d="M14.6 7.6c-6 0-10.9 10.9-10.7 26.9 0 1.9.1 3.7.3 5.5-1-4.2-1.6-8.5-1.6-12.8C2.4 12.3 7.7.3 14.3.2S26.6 12.1 26.7 27c.1 3.2-.2 6.5-.9 9.7v-2.4c-.2-16-5.1-26.8-11.2-26.7"/><path d="M17.2 14.1c8.4.8 11 3.9 11.1 6 .1 3.8-12.6 6.4-22.7 6.1-1.9 0-3.8-.2-5.6-.5 2.8.8 5.7 1.3 8.6 1.3 15.6.4 23.9-2 24-5.9s-5.5-6.6-15.4-7m31.3 5.1h-1.8c-.4 0-.7-.2-.8-.6l-.7-1.8h-5.8l-.7 1.8c-.1.4-.4.6-.8.6h-1.7c-.5 0-.7-.4-.5-.9l4.7-11.7c.1-.4.4-.6.8-.6h2.1c.4 0 .7.2.8.6L49 18.3c.2.5 0 .9-.5.9m-4.2-4.8l-2-5.5-2 5.5h4zm5.8 4V6.8c0-.5.2-.8.7-.8h1.4c.4 0 .7.3.7.8v11.6c0 .5-.3.8-.7.8h-1.4c-.4 0-.7-.3-.7-.8M55 7.5v-.7c0-.5.2-.8.7-.8h1.4c.4 0 .7.3.7.8v.7c0 .5-.2.7-.7.7h-1.4c-.5.1-.7-.2-.7-.7m0 10.9V10c0-.5.2-.7.7-.7h1.4a.68.68 0 0 1 .7.7v8.5c0 .5-.2.8-.7.8h-1.4c-.5-.1-.7-.4-.7-.9m9.7-2.8V9.7c0-2.5 1.1-3.6 3.3-3.6h5.5c2.3 0 3.3 1.1 3.3 3.6v5.9c0 2.5-1.1 3.6-3.3 3.6H68c-2.2 0-3.3-1.1-3.3-3.6m7.8.9c1 0 1.4-.4 1.4-1.5v-4.6c0-1.1-.4-1.5-1.4-1.5H69c-1 0-1.4.4-1.4 1.5V15c0 1.1.4 1.5 1.4 1.5h3.5zm6 0c0-.4.2-.6.5-.6h1.8c.2 0 .4.2.4.5 0 .5.1.7.7.7H85c.4 0 .5-.1.5-.6V16c0-.4-.1-.6-.5-.6l-4.2-.5c-1.1 0-2.1-.8-2.1-2v-1.4c0-1.5.8-2.3 2.1-2.3H86c1.3 0 2.1.8 2.1 2.3v.3a.47.47 0 0 1-.5.5h-1.8c-.2 0-.4-.1-.4-.4v-.1c0-.5-.2-.6-.6-.6H82c-.4 0-.5.1-.5.6v.2c0 .4.1.6.5.6l4.2.4c1.1 0 2.1.9 2.1 2v1.8c0 1.5-.8 2.3-2.1 2.3h-5.6c-1.3 0-2.1-.8-2.1-2.3v-.3zm27.8-4v6c0 .5-.2.8-.7.8h-1.4c-.4 0-.7-.3-.7-.8V13c0-1-.3-1.3-1.2-1.3h-.5c-.6-.1-1.3.1-1.8.5l-.5.5v5.7c0 .5-.2.8-.7.8h-1.4c-.4 0-.7-.3-.7-.8V13c0-1-.3-1.3-1.2-1.3h-.4c-.6-.1-1.3.1-1.8.5l-.5.5v5.7c0 .5-.2.8-.7.8h-1.4c-.4 0-.7-.3-.7-.8V10c0-.5.2-.7.7-.7h1c.4 0 .7.3.8.6l.1.6c1.1-1.1 1.8-1.2 3.4-1.2h.6c1.4 0 2.2.4 2.7 1.4 1.2-1.2 1.8-1.4 3.6-1.4h.5c2 0 2.9.9 2.9 3.2m11.6 0v6c0 .5-.2.8-.7.8h-1c-.4 0-.7-.2-.8-.6l-.1-.6c-1.1 1-1.6 1.2-3.2 1.2h-2c-1.4 0-2.1-.8-2.1-2.4v-1.1c0-1.6.8-2.4 2.1-2.4h5v-.7c0-1-.3-1.3-1.2-1.3h-2c-.7 0-.9.3-.9.9 0 .3-.1.4-.4.4h-1.8c-.2 0-.5-.2-.5-.4V12c0-1.9.8-2.8 2.6-2.8h4c2.1 0 3 1 3 3.3m-3.4 4.2l.6-.5v-1.1h-3.6c-.7 0-.9.2-.9.9v.2c0 .7.2.9.9.9h1.4c.6.1 1.1 0 1.6-.4m15.2-4.2v6c0 .5-.2.8-.7.8h-1.4c-.4 0-.7-.3-.7-.8V13c0-1-.3-1.3-1.2-1.3h-.9c-.6-.1-1.3.1-1.8.5l-.5.5v5.7c0 .5-.2.8-.7.8h-1.4c-.4 0-.7-.3-.7-.8V10c0-.5.2-.7.7-.7h1.1c.4 0 .7.3.8.6l.1.6c1.1-1.1 1.8-1.2 3.4-1.2h.9c2.1 0 3 .9 3 3.2M51.4 30.9v-8.7c0-.5.2-.8.7-.8h1.6c.4 0 .7.3.7.8v8.1c0 1.1.4 1.5 1.4 1.5h2.9c1 0 1.4-.4 1.4-1.5v-8.1c0-.5.2-.8.7-.8h1.4c.4 0 .7.2.7.6v8.9c0 2.5-1.1 3.6-3.3 3.6h-5c-2.1.1-3.2-1.1-3.2-3.6m13.5 2.9V22.2c0-.5.2-.8.7-.8H67c.4 0 .7.3.7.8v11.6c0 .5-.3.8-.7.8h-1.4c-.4 0-.7-.3-.7-.8m14.6-8.5v8.5c0 .5-.2.8-.7.8h-1a.9.9 0 0 1-.8-.6l-.1-.6c-1.1 1.1-1.8 1.2-3.4 1.2h-.9c-2.1 0-3-.9-3-3.3v-6c0-.5.2-.7.7-.7h1.4c.4 0 .7.2.7.6v5.6c0 1 .3 1.3 1.2 1.3h.8c.6.1 1.3-.1 1.8-.5l.5-.5v-5.7c0-.5.2-.7.7-.7h1.4c.5-.1.8.1.7.6m1.7 6.5c0-.3.2-.5.4-.6h1.9c.2 0 .4.2.4.4v.1c0 .5.1.7.6.7h3.1c.4 0 .5-.1.5-.6v-.6c0-.4-.1-.6-.5-.6l-4.2-.5c-1.1 0-2.1-.8-2.1-2v-1.5c0-1.5.8-2.3 2.1-2.3h5.2c1.3 0 2.1.8 2.1 2.3v.3a.47.47 0 0 1-.5.5h-1.9c-.2 0-.4-.1-.4-.4 0-.5-.1-.6-.6-.6h-2.7c-.4 0-.5.1-.5.6v.2c0 .4.2.6.5.6l4.2.4a2 2 0 0 1 2.1 2V32c0 1.5-.8 2.3-2.1 2.3h-5.6c-1.3 0-2.1-.8-2.1-2.3v-.2zm11.4-.5v-3.5c0-2.3.9-3.3 3-3.3h4.2c2.1 0 3 .9 3 3.3v3.5c0 2.3-.9 3.3-3 3.3h-4.2c-2.1 0-3-1-3-3.3m6.1.8c.9 0 1.2-.3 1.2-1.3v-2.5c0-1-.3-1.3-1.2-1.3h-2.1c-.9 0-1.2.3-1.2 1.3v2.5c0 1 .3 1.3 1.2 1.3h2.1zm15-6.7l-4 9.2c-1 2.4-1.9 2.9-4.3 2.9h-.9a.7.7 0 0 1-.7-.7v-.9c0-.5.2-.7.7-.7h1c.8 0 1.3-.1 1.6-.7l-3.9-9c-.2-.5 0-.9.5-.9h1.6c.4 0 .7.2.8.6l2.3 6.2 2.4-6.2c.1-.4.4-.6.8-.6h1.5c.5 0 .7.3.6.8"/></svg>